# 3ds Max Wavefront OBJ Exporter v0.97b - (c)2007 guruware
# File Created: 04.03.2016 17:28:54

#
# object Box044
#

v  51.3310 604.2957 275.3016
v  51.4904 601.9644 -0.0000
v  -219.0270 654.4858 -0.0000
v  -151.9812 654.4858 199.1180
v  -411.0214 57.3050 466.2115
v  415.3505 57.3050 470.5853
v  321.6255 663.9780 -0.0000
v  245.0947 654.4858 198.6629
v  33.1312 203.4952 -492.2725
v  51.4904 656.7743 -289.9360
v  275.4041 654.4858 -204.7535
v  380.2546 57.3050 -332.9708
v  -411.0214 57.3050 -466.2115
v  -124.0949 654.4858 -225.4184
v  502.8119 306.8542 -20.8013
v  -452.8474 57.3050 -0.0000
v  51.4904 57.3050 466.2115
v  437.2474 57.3050 181.8085
# 18 vertices

vn 0.0014 0.7639 0.6453
vn -0.0136 0.9987 0.0487
vn -0.5283 0.8491 -0.0052
vn -0.2851 0.8769 0.3869
vn -0.6010 0.4697 0.6466
vn 0.6005 0.3908 0.6976
vn 0.5515 0.8342 0.0057
vn 0.3203 0.8453 0.4277
vn 0.1268 0.3723 -0.9194
vn 0.0296 0.8372 -0.5461
vn 0.5096 0.7616 -0.4004
vn 0.6450 0.3041 -0.7011
vn -0.7134 0.4755 -0.5148
vn -0.3509 0.8583 -0.3744
vn 0.8919 0.4497 0.0480
vn -0.9312 0.3646 -0.0000
vn -0.0057 0.3295 0.9441
vn 0.9476 0.2428 0.2075
# 18 vertex normals

vt 0.3844 0.5536 0.0000
vt 0.4953 0.4836 0.0000
vt 0.5672 0.5786 0.0000
vt 0.4772 0.6016 0.0000
vt 0.3940 0.9781 0.0000
vt 0.0043 0.4672 0.0000
vt 0.4347 0.3764 0.0000
vt 0.3788 0.4545 0.0000
vt 0.8380 0.2898 0.0000
vt 0.6140 0.4105 0.0000
vt 0.5243 0.3553 0.0000
vt 0.6330 0.0376 0.0000
vt 1.0020 0.6113 0.0000
vt 0.6308 0.4871 0.0000
vt 0.3588 0.1834 0.0000
vt 0.7391 0.8630 0.0000
vt 0.1384 0.7338 0.0000
vt 0.1184 0.2369 0.0000
# 18 texture coords

g Box044
f 1/1/1 2/2/2 3/3/3 4/4/4 
f 5/5/5 1/1/1 4/4/4 
f 6/6/6 7/7/7 8/8/8 
f 9/9/9 10/10/10 11/11/11 12/12/12 
f 13/13/13 3/3/3 14/14/14 
f 11/11/11 10/10/10 2/2/2 7/7/7 
f 12/12/12 11/11/11 7/7/7 15/15/15 
f 16/16/16 5/5/5 3/3/3 
f 8/8/8 7/7/7 2/2/2 1/1/1 
f 17/17/17 6/6/6 1/1/1 
f 9/9/9 13/13/13 10/10/10 
f 14/14/14 3/3/3 2/2/2 10/10/10 
f 13/13/13 14/14/14 10/10/10 
f 13/13/13 16/16/16 3/3/3 
f 5/5/5 4/4/4 3/3/3 
f 5/5/5 17/17/17 1/1/1 
f 6/6/6 8/8/8 1/1/1 
f 6/6/6 18/18/18 7/7/7 
f 7/7/7 18/18/18 15/15/15 
# 6 polygons - 13 triangles

