# 3ds Max Wavefront OBJ Exporter v0.97b - (c)2007 guruware
# File Created: 21.03.2016 22:34:43

#
# object Floor
#

v  3523.6870 -0.0796 1616.5083
v  3523.6870 -0.0797 2277.9702
v  2191.6301 -0.0797 2277.9702
v  2191.6301 -0.0796 1616.5083
v  3523.6870 -0.0794 188.1384
v  2191.6301 -0.0794 188.1384
v  1349.5616 -0.0797 2277.9702
v  1349.5616 -0.0796 2161.8286
v  1349.5616 -0.0796 1828.9834
v  1349.5616 -0.0796 1616.5083
# 10 vertices

vn 0.0000 -1.0000 -0.0000
# 1 vertex normals

vt 0.3414 0.9781 0.0000
vt 0.0507 0.9781 0.0000
vt 0.0507 0.3928 0.0000
vt 0.3414 0.3928 0.0000
vt 0.9690 0.9781 0.0000
vt 0.9690 0.3928 0.0000
vt 0.0507 0.0228 0.0000
vt 0.1018 0.0228 0.0000
vt 0.2480 0.0228 0.0000
vt 0.3414 0.0228 0.0000
# 10 texture coords

g Floor
f 1/1/1 2/2/1 3/3/1 4/4/1 
f 5/5/1 1/1/1 4/4/1 6/6/1 
f 3/3/1 7/7/1 8/8/1 4/4/1 
f 9/9/1 10/10/1 4/4/1 8/8/1 
# 4 polygons

