# 3ds Max Wavefront OBJ Exporter v0.97b - (c)2007 guruware
# File Created: 22.03.2016 00:06:55

#
# object Object001
#

v  -1172.2670 252.9808 -931.3027
v  -1173.8602 252.9808 -931.3027
v  -1173.8602 258.7679 -930.1515
v  -1172.2670 258.7679 -930.1515
v  -1173.8602 263.6739 -926.8734
v  -1172.2670 263.6739 -926.8734
v  -1173.8602 266.9520 -921.9674
v  -1172.2670 266.9520 -921.9674
v  -1173.8602 268.1031 -916.1804
v  -1172.2670 268.1031 -916.1804
v  -1173.8602 266.9520 -910.3933
v  -1172.2670 266.9520 -910.3933
v  -1173.8602 263.6739 -905.4874
v  -1172.2670 263.6739 -905.4874
v  -1173.8602 258.7679 -902.2093
v  -1172.2670 258.7679 -902.2093
v  -1173.8602 252.9808 -901.0581
v  -1172.2670 252.9808 -901.0581
v  -1173.8602 247.1938 -902.2093
v  -1172.2670 247.1938 -902.2093
v  -1173.8602 242.2877 -905.4874
v  -1172.2670 242.2877 -905.4874
v  -1173.8602 239.0096 -910.3933
v  -1172.2670 239.0096 -910.3933
v  -1173.8602 237.8585 -916.1804
v  -1172.2670 237.8585 -916.1804
v  -1173.8602 239.0096 -921.9674
v  -1172.2670 239.0096 -921.9674
v  -1173.8602 242.2877 -926.8734
v  -1172.2670 242.2877 -926.8734
v  -1173.8602 247.1938 -930.1515
v  -1172.2670 247.1938 -930.1515
v  -1170.3590 252.9808 -927.4036
v  -1170.3590 257.2757 -926.5493
v  -1170.3590 260.9168 -924.1164
v  -1170.3590 263.3497 -920.4753
v  -1170.3590 264.2040 -916.1804
v  -1170.3590 263.3497 -911.8854
v  -1170.3590 260.9168 -908.2444
v  -1170.3590 257.2757 -905.8115
v  -1170.3590 252.9808 -904.9572
v  -1170.3590 248.6859 -905.8115
v  -1170.3590 245.0448 -908.2444
v  -1170.3590 242.6119 -911.8854
v  -1170.3590 241.7576 -916.1804
v  -1170.3590 242.6119 -920.4753
v  -1170.3590 245.0448 -924.1164
v  -1170.3590 248.6859 -926.5493
v  -1170.3590 252.9808 -922.0572
v  -1170.3590 255.2298 -921.6099
v  -1170.3590 257.1364 -920.3359
v  -1170.3590 258.4103 -918.4294
v  -1170.3590 258.8576 -916.1804
v  -1170.3590 258.4103 -913.9314
v  -1170.3590 257.1364 -912.0248
v  -1170.3590 255.2298 -910.7509
v  -1170.3590 252.9808 -910.3035
v  -1170.3590 250.7318 -910.7509
v  -1170.3590 248.8252 -912.0248
v  -1170.3590 247.5513 -913.9314
v  -1170.3590 247.1040 -916.1804
v  -1170.3590 247.5513 -918.4294
v  -1170.3590 248.8252 -920.3359
v  -1170.3590 250.7318 -921.6099
v  -1152.0670 257.1267 -917.8977
v  -1152.0670 252.9808 -920.6679
v  -1152.0670 254.6981 -920.3263
v  -1152.0670 256.1540 -919.3536
v  -1152.0670 257.1267 -914.4631
v  -1152.0670 257.4683 -916.1804
v  -1152.0670 254.6981 -912.0345
v  -1152.0670 256.1540 -913.0072
v  -1152.0670 251.2635 -912.0345
v  -1152.0670 252.9808 -911.6929
v  -1152.0670 248.8349 -914.4631
v  -1152.0670 249.8076 -913.0072
v  -1152.0670 248.8349 -917.8977
v  -1152.0670 248.4933 -916.1804
v  -1152.0670 251.2635 -920.3263
v  -1152.0670 249.8076 -919.3536
v  -1161.1295 252.9808 -922.0572
v  -1161.1295 255.2298 -921.6099
v  -1161.1295 257.1364 -920.3359
v  -1161.1295 258.4103 -918.4294
v  -1161.1295 258.8576 -916.1804
v  -1161.1295 258.4103 -913.9314
v  -1161.1295 257.1364 -912.0248
v  -1161.1295 255.2298 -910.7509
v  -1161.1295 252.9808 -910.3035
v  -1161.1295 250.7318 -910.7509
v  -1161.1295 248.8252 -912.0248
v  -1161.1295 247.5513 -913.9314
v  -1161.1295 247.1040 -916.1804
v  -1161.1295 247.5513 -918.4294
v  -1161.1295 248.8252 -920.3359
v  -1161.1295 250.7318 -921.6099
v  -1159.8401 252.9808 -924.1363
v  -1159.8401 256.0254 -923.5306
v  -1159.8401 258.6064 -921.8060
v  -1159.8401 260.3310 -919.2250
v  -1159.8401 260.9366 -916.1804
v  -1159.8401 260.3310 -913.1359
v  -1159.8401 258.6064 -910.5548
v  -1159.8401 256.0254 -908.8302
v  -1159.8401 252.9808 -908.2245
v  -1159.8401 249.9362 -908.8302
v  -1159.8401 247.3552 -910.5548
v  -1159.8401 245.6306 -913.1359
v  -1159.8401 245.0249 -916.1804
v  -1159.8401 245.6306 -919.2250
v  -1159.8401 247.3552 -921.8060
v  -1159.8401 249.9362 -923.5306
v  -1157.2269 252.9808 -925.2982
v  -1157.2269 256.4700 -924.6042
v  -1155.2423 256.4935 -924.6608
v  -1155.2423 252.9808 -925.3595
v  -1157.2269 259.4280 -922.6277
v  -1155.2423 259.4714 -922.6710
v  -1157.2269 261.4045 -919.6696
v  -1155.2423 261.4611 -919.6931
v  -1157.2269 262.0986 -916.1804
v  -1155.2423 262.1599 -916.1804
v  -1157.2269 261.4045 -912.6912
v  -1155.2423 261.4611 -912.6678
v  -1157.2269 259.4280 -909.7332
v  -1155.2423 259.4714 -909.6899
v  -1157.2269 256.4700 -907.7567
v  -1155.2423 256.4935 -907.7001
v  -1157.2269 252.9808 -907.0626
v  -1155.2423 252.9808 -907.0013
v  -1157.2269 249.4916 -907.7567
v  -1155.2423 249.4681 -907.7001
v  -1157.2269 246.5336 -909.7332
v  -1155.2423 246.4902 -909.6899
v  -1157.2269 244.5571 -912.6912
v  -1155.2423 244.5005 -912.6678
v  -1157.2269 243.8630 -916.1804
v  -1155.2423 243.8018 -916.1804
v  -1157.2269 244.5571 -919.6696
v  -1155.2423 244.5005 -919.6931
v  -1157.2269 246.5336 -922.6277
v  -1155.2423 246.4902 -922.6710
v  -1157.2269 249.4916 -924.6042
v  -1155.2423 249.4681 -924.6608
v  -1152.6765 252.9808 -922.4401
v  -1152.6765 255.3763 -921.9636
v  -1152.6765 257.4070 -920.6067
v  -1152.6765 258.7640 -918.5759
v  -1152.6765 259.2404 -916.1804
v  -1152.6765 258.7640 -913.7849
v  -1152.6765 257.4070 -911.7541
v  -1152.6765 255.3763 -910.3972
v  -1152.6765 252.9808 -909.9207
v  -1152.6765 250.5853 -910.3972
v  -1152.6765 248.5546 -911.7541
v  -1152.6765 247.1976 -913.7849
v  -1152.6765 246.7211 -916.1804
v  -1152.6765 247.1976 -918.5759
v  -1152.6765 248.5546 -920.6067
v  -1152.6765 250.5853 -921.9636
# 160 vertices

vn 0.0000 -0.0000 -1.0000
vn 0.0000 0.3827 -0.9239
vn 0.0000 0.7071 -0.7071
vn 0.0000 0.9239 -0.3827
vn 0.0000 1.0000 -0.0000
vn 0.0000 0.9239 0.3827
vn 0.0000 0.7071 0.7071
vn 0.0000 0.3827 0.9239
vn 0.0000 -0.0000 1.0000
vn 0.0000 -0.3827 0.9239
vn 0.0000 -0.7071 0.7071
vn 0.0000 -0.9239 0.3827
vn 0.0000 -1.0000 -0.0000
vn 0.0000 -0.9239 -0.3827
vn 0.0000 -0.7071 -0.7071
vn 0.0000 -0.3827 -0.9239
vn 0.9677 -0.0000 -0.2520
vn 0.8982 -0.0000 -0.4395
vn 0.8982 0.1682 -0.4061
vn 0.9677 0.0964 -0.2328
vn 0.8982 0.3108 -0.3108
vn 0.9677 0.1782 -0.1782
vn 0.8982 0.4061 -0.1682
vn 0.9677 0.2328 -0.0964
vn 0.8982 0.4395 -0.0000
vn 0.9677 0.2520 -0.0000
vn 0.8982 0.4061 0.1682
vn 0.9677 0.2328 0.0964
vn 0.8982 0.3108 0.3108
vn 0.9677 0.1782 0.1782
vn 0.8982 0.1682 0.4061
vn 0.9677 0.0964 0.2328
vn 0.8982 -0.0000 0.4395
vn 0.9677 -0.0000 0.2520
vn 0.8982 -0.1682 0.4061
vn 0.9677 -0.0964 0.2328
vn 0.8982 -0.3108 0.3108
vn 0.9677 -0.1782 0.1782
vn 0.8982 -0.4061 0.1682
vn 0.9677 -0.2328 0.0964
vn 0.8982 -0.4395 -0.0000
vn 0.9677 -0.2520 -0.0000
vn 0.8982 -0.4061 -0.1682
vn 0.9677 -0.2328 -0.0964
vn 0.8982 -0.3108 -0.3108
vn 0.9677 -0.1782 -0.1782
vn 0.8982 -0.1682 -0.4061
vn 0.9677 -0.0964 -0.2328
vn 1.0000 0.0000 -0.0000
vn 0.9828 0.1707 -0.0707
vn 0.9828 0.0000 -0.1848
vn 0.9828 0.0707 -0.1707
vn 0.9828 0.1307 -0.1307
vn 0.9828 0.1707 0.0707
vn 0.9828 0.1848 -0.0000
vn 0.9828 0.0707 0.1707
vn 0.9828 0.1307 0.1307
vn 0.9828 -0.0707 0.1707
vn 0.9828 0.0000 0.1848
vn 0.9828 -0.1707 0.0707
vn 0.9828 -0.1307 0.1307
vn 0.9828 -0.1707 -0.0707
vn 0.9828 -0.1848 -0.0000
vn 0.9828 -0.0707 -0.1707
vn 0.9828 -0.1307 -0.1307
vn 0.0000 0.0000 -1.0000
vn 0.0000 0.0000 1.0000
vn -0.6395 0.0000 -0.7688
vn -0.8498 0.0000 -0.5271
vn -0.8498 0.2017 -0.4870
vn -0.6395 0.2942 -0.7102
vn -0.8498 0.3727 -0.3727
vn -0.6395 0.5436 -0.5436
vn -0.8498 0.4870 -0.2017
vn -0.6395 0.7102 -0.2942
vn -0.8498 0.5271 0.0000
vn -0.6395 0.7688 0.0000
vn -0.8498 0.4870 0.2017
vn -0.6395 0.7102 0.2942
vn -0.8498 0.3727 0.3727
vn -0.6395 0.5436 0.5436
vn -0.8498 0.2017 0.4870
vn -0.6395 0.2942 0.7102
vn -0.8498 0.0000 0.5271
vn -0.6395 0.0000 0.7688
vn -0.8498 -0.2017 0.4870
vn -0.6395 -0.2942 0.7102
vn -0.8498 -0.3727 0.3727
vn -0.6395 -0.5436 0.5436
vn -0.8498 -0.4870 0.2017
vn -0.6395 -0.7102 0.2942
vn -0.8498 -0.5271 0.0000
vn -0.6395 -0.7688 0.0000
vn -0.8498 -0.4870 -0.2017
vn -0.6395 -0.7102 -0.2942
vn -0.8498 -0.3727 -0.3727
vn -0.6395 -0.5436 -0.5436
vn -0.8498 -0.2017 -0.4870
vn -0.6395 -0.2942 -0.7102
vn -0.2177 0.0000 -0.9760
vn -0.2177 0.3735 -0.9017
vn -0.0309 0.3825 -0.9234
vn -0.0309 0.0000 -0.9995
vn -0.2177 0.6901 -0.6901
vn -0.0309 0.7068 -0.7068
vn -0.2177 0.9017 -0.3735
vn -0.0309 0.9234 -0.3825
vn -0.2177 0.9760 0.0000
vn -0.0309 0.9995 0.0000
vn -0.2177 0.9017 0.3735
vn -0.0309 0.9234 0.3825
vn -0.2177 0.6901 0.6901
vn -0.0309 0.7068 0.7068
vn -0.2177 0.3735 0.9017
vn -0.0309 0.3825 0.9234
vn -0.2177 0.0000 0.9760
vn -0.0309 0.0000 0.9995
vn -0.2177 -0.3735 0.9017
vn -0.0309 -0.3825 0.9234
vn -0.2177 -0.6901 0.6901
vn -0.0309 -0.7068 0.7068
vn -0.2177 -0.9017 0.3735
vn -0.0309 -0.9234 0.3825
vn -0.2177 -0.9760 0.0000
vn -0.0308 -0.9995 0.0000
vn -0.2177 -0.9017 -0.3735
vn -0.0309 -0.9234 -0.3825
vn -0.2177 -0.6901 -0.6901
vn -0.0309 -0.7068 -0.7068
vn -0.2177 -0.3735 -0.9017
vn -0.0309 -0.3825 -0.9234
vn 0.8543 0.0000 -0.5198
vn 0.8543 0.1989 -0.4803
vn 0.8543 0.3676 -0.3676
vn 0.8543 0.4803 -0.1989
vn 0.8543 0.5198 0.0000
vn 0.8543 0.4803 0.1989
vn 0.8543 0.3676 0.3676
vn 0.8543 0.1989 0.4803
vn 0.8543 0.0000 0.5198
vn 0.8543 -0.1989 0.4803
vn 0.8543 -0.3676 0.3676
vn 0.8543 -0.4803 0.1989
vn 0.8543 -0.5198 0.0000
vn 0.8543 -0.4803 -0.1989
vn 0.8543 -0.3676 -0.3676
vn 0.8543 -0.1989 -0.4803
vn 0.7511 0.0000 -0.6602
vn 0.7511 0.2526 -0.6099
vn 0.7511 0.4668 -0.4668
vn 0.7511 0.6099 -0.2526
vn 0.7511 0.6602 0.0000
vn 0.7511 0.6099 0.2526
vn 0.7511 0.4668 0.4668
vn 0.7511 0.2526 0.6099
vn 0.7511 0.0000 0.6602
vn 0.7511 -0.2526 0.6099
vn 0.7511 -0.4668 0.4668
vn 0.7511 -0.6099 0.2526
vn 0.7511 -0.6602 0.0000
vn 0.7511 -0.6099 -0.2526
vn 0.7511 -0.4668 -0.4668
vn 0.7511 -0.2526 -0.6099
# 163 vertex normals

vt 0.7707 0.5495 0.0000
vt 0.7707 0.5245 0.0000
vt 0.8612 0.5245 0.0000
vt 0.8612 0.5495 0.0000
vt 0.9379 0.5245 0.0000
vt 0.9379 0.5495 0.0000
vt 0.9891 0.5245 0.0000
vt 0.9891 0.5495 0.0000
vt 0.9179 0.2505 0.0000
vt 0.9179 0.2754 0.0000
vt 0.8275 0.2754 0.0000
vt 0.8275 0.2505 0.0000
vt 0.7370 0.2754 0.0000
vt 0.7370 0.2505 0.0000
vt 0.9891 0.4844 0.0000
vt 0.9891 0.5093 0.0000
vt 0.9379 0.5093 0.0000
vt 0.9379 0.4844 0.0000
vt 0.8612 0.5093 0.0000
vt 0.8612 0.4844 0.0000
vt 0.7707 0.5093 0.0000
vt 0.7707 0.4844 0.0000
vt 0.6803 0.5093 0.0000
vt 0.6803 0.4844 0.0000
vt 0.6036 0.5093 0.0000
vt 0.6036 0.4844 0.0000
vt 0.5523 0.5093 0.0000
vt 0.5523 0.4844 0.0000
vt 0.9532 0.0050 0.0000
vt 0.9532 0.0299 0.0000
vt 0.8627 0.0299 0.0000
vt 0.8627 0.0050 0.0000
vt 0.7722 0.0299 0.0000
vt 0.7722 0.0050 0.0000
vt 0.5523 0.5495 0.0000
vt 0.5523 0.5245 0.0000
vt 0.6036 0.5245 0.0000
vt 0.6036 0.5495 0.0000
vt 0.6803 0.5245 0.0000
vt 0.6803 0.5495 0.0000
vt 0.4093 0.2706 0.0000
vt 0.4691 0.2822 0.0000
vt 0.4341 0.3676 0.0000
vt 0.3833 0.3339 0.0000
vt 0.3692 0.4331 0.0000
vt 0.3351 0.3825 0.0000
vt 0.2841 0.4687 0.0000
vt 0.2720 0.4090 0.0000
vt 0.1918 0.4691 0.0000
vt 0.2035 0.4093 0.0000
vt 0.1065 0.4341 0.0000
vt 0.1401 0.3833 0.0000
vt 0.0410 0.3692 0.0000
vt 0.0916 0.3351 0.0000
vt 0.0054 0.2841 0.0000
vt 0.0651 0.2720 0.0000
vt 0.0050 0.1918 0.0000
vt 0.0648 0.2035 0.0000
vt 0.0400 0.1065 0.0000
vt 0.0908 0.1401 0.0000
vt 0.1049 0.0410 0.0000
vt 0.1390 0.0916 0.0000
vt 0.1900 0.0054 0.0000
vt 0.2021 0.0651 0.0000
vt 0.2822 0.0050 0.0000
vt 0.2706 0.0648 0.0000
vt 0.3676 0.0400 0.0000
vt 0.3339 0.0908 0.0000
vt 0.4331 0.1049 0.0000
vt 0.3825 0.1390 0.0000
vt 0.4687 0.1900 0.0000
vt 0.4090 0.2021 0.0000
vt 0.3272 0.2546 0.0000
vt 0.3136 0.2878 0.0000
vt 0.2884 0.3132 0.0000
vt 0.2553 0.3271 0.0000
vt 0.2195 0.3272 0.0000
vt 0.1863 0.3136 0.0000
vt 0.1609 0.2884 0.0000
vt 0.1470 0.2553 0.0000
vt 0.1469 0.2195 0.0000
vt 0.1605 0.1863 0.0000
vt 0.1857 0.1609 0.0000
vt 0.2188 0.1470 0.0000
vt 0.2546 0.1469 0.0000
vt 0.2878 0.1605 0.0000
vt 0.3132 0.1857 0.0000
vt 0.3271 0.2188 0.0000
vt 0.5529 0.2919 0.0000
vt 0.5120 0.3583 0.0000
vt 0.5164 0.3313 0.0000
vt 0.5307 0.3080 0.0000
vt 0.6066 0.2899 0.0000
vt 0.5795 0.2856 0.0000
vt 0.6459 0.3264 0.0000
vt 0.6299 0.3043 0.0000
vt 0.6479 0.3801 0.0000
vt 0.6523 0.3531 0.0000
vt 0.6114 0.4194 0.0000
vt 0.6336 0.4034 0.0000
vt 0.5577 0.4214 0.0000
vt 0.5848 0.4258 0.0000
vt 0.5184 0.3849 0.0000
vt 0.5344 0.4071 0.0000
vt 0.1493 0.6169 0.0000
vt 0.0050 0.6169 0.0000
vt 0.0050 0.5818 0.0000
vt 0.1493 0.5818 0.0000
vt 0.0050 0.5520 0.0000
vt 0.1493 0.5520 0.0000
vt 0.0050 0.5321 0.0000
vt 0.1493 0.5321 0.0000
vt 0.1371 0.8273 0.0000
vt 0.2814 0.8273 0.0000
vt 0.2814 0.8624 0.0000
vt 0.1371 0.8624 0.0000
vt 0.2814 0.8976 0.0000
vt 0.1371 0.8976 0.0000
vt 0.2814 0.9274 0.0000
vt 0.1371 0.9274 0.0000
vt 0.2814 0.9473 0.0000
vt 0.1371 0.9473 0.0000
vt 0.3849 0.7635 0.0000
vt 0.5292 0.7635 0.0000
vt 0.5292 0.7987 0.0000
vt 0.3849 0.7987 0.0000
vt 0.5292 0.8339 0.0000
vt 0.3849 0.8339 0.0000
vt 0.6165 0.0527 0.0000
vt 0.7608 0.0527 0.0000
vt 0.7608 0.0726 0.0000
vt 0.6165 0.0726 0.0000
vt 0.7608 0.1024 0.0000
vt 0.6165 0.1024 0.0000
vt 0.7608 0.1376 0.0000
vt 0.6165 0.1376 0.0000
vt 0.7608 0.1727 0.0000
vt 0.6165 0.1727 0.0000
vt 0.1493 0.7018 0.0000
vt 0.0050 0.7018 0.0000
vt 0.0050 0.6819 0.0000
vt 0.1493 0.6819 0.0000
vt 0.0050 0.6521 0.0000
vt 0.1493 0.6521 0.0000
vt 0.2929 0.5827 0.0000
vt 0.3248 0.5889 0.0000
vt 0.3249 0.6247 0.0000
vt 0.2931 0.6312 0.0000
vt 0.3388 0.6578 0.0000
vt 0.3118 0.6759 0.0000
vt 0.3642 0.6830 0.0000
vt 0.3463 0.7101 0.0000
vt 0.3974 0.6966 0.0000
vt 0.3912 0.7285 0.0000
vt 0.4332 0.6965 0.0000
vt 0.4397 0.7283 0.0000
vt 0.4663 0.6826 0.0000
vt 0.4845 0.7096 0.0000
vt 0.4916 0.6572 0.0000
vt 0.5186 0.6751 0.0000
vt 0.5051 0.6240 0.0000
vt 0.5370 0.6302 0.0000
vt 0.5050 0.5882 0.0000
vt 0.5368 0.5817 0.0000
vt 0.4911 0.5551 0.0000
vt 0.5181 0.5369 0.0000
vt 0.4657 0.5298 0.0000
vt 0.4836 0.5028 0.0000
vt 0.4325 0.5163 0.0000
vt 0.4387 0.4844 0.0000
vt 0.3967 0.5164 0.0000
vt 0.3902 0.4846 0.0000
vt 0.3636 0.5303 0.0000
vt 0.3455 0.5033 0.0000
vt 0.3384 0.5557 0.0000
vt 0.3113 0.5378 0.0000
vt 0.2103 0.6169 0.0000
vt 0.2103 0.5624 0.0000
vt 0.2413 0.5620 0.0000
vt 0.2413 0.6169 0.0000
vt 0.2103 0.5161 0.0000
vt 0.2413 0.5155 0.0000
vt 0.2103 0.4852 0.0000
vt 0.2413 0.4844 0.0000
vt 0.0761 0.8079 0.0000
vt 0.0761 0.8624 0.0000
vt 0.0451 0.8624 0.0000
vt 0.0451 0.8075 0.0000
vt 0.0761 0.9170 0.0000
vt 0.0451 0.9173 0.0000
vt 0.0761 0.9632 0.0000
vt 0.0451 0.9639 0.0000
vt 0.0761 0.9941 0.0000
vt 0.0451 0.9950 0.0000
vt 0.3239 0.7442 0.0000
vt 0.3239 0.7987 0.0000
vt 0.2929 0.7987 0.0000
vt 0.2929 0.7438 0.0000
vt 0.3239 0.8533 0.0000
vt 0.2929 0.8536 0.0000
vt 0.5555 0.0059 0.0000
vt 0.5555 0.0368 0.0000
vt 0.5245 0.0361 0.0000
vt 0.5245 0.0050 0.0000
vt 0.5555 0.0830 0.0000
vt 0.5245 0.0827 0.0000
vt 0.5555 0.1376 0.0000
vt 0.5245 0.1376 0.0000
vt 0.5555 0.1921 0.0000
vt 0.5245 0.1925 0.0000
vt 0.2103 0.7486 0.0000
vt 0.2103 0.7177 0.0000
vt 0.2413 0.7184 0.0000
vt 0.2413 0.7495 0.0000
vt 0.2103 0.6715 0.0000
vt 0.2413 0.6718 0.0000
vt 0.4844 0.3593 0.0000
vt 0.4904 0.3216 0.0000
vt 0.5104 0.2891 0.0000
vt 0.5414 0.2667 0.0000
vt 0.5785 0.2579 0.0000
vt 0.6162 0.2639 0.0000
vt 0.6487 0.2839 0.0000
vt 0.6711 0.3149 0.0000
vt 0.6799 0.3520 0.0000
vt 0.6739 0.3897 0.0000
vt 0.6539 0.4222 0.0000
vt 0.6230 0.4446 0.0000
vt 0.5858 0.4535 0.0000
vt 0.5481 0.4474 0.0000
vt 0.5156 0.4274 0.0000
vt 0.4932 0.3965 0.0000
vt 0.2814 0.5795 0.0000
vt 0.2814 0.6169 0.0000
vt 0.2814 0.5477 0.0000
vt 0.0451 0.7610 0.0000
vt 0.0050 0.8250 0.0000
vt 0.0050 0.7932 0.0000
vt 0.0050 0.8624 0.0000
vt 0.0050 0.8999 0.0000
vt 0.0050 0.9316 0.0000
vt 0.6798 0.2505 0.0000
vt 0.7126 0.2959 0.0000
vt 0.7255 0.3503 0.0000
vt 0.7167 0.4056 0.0000
vt 0.6873 0.4533 0.0000
vt 0.4844 0.1001 0.0000
vt 0.4844 0.0684 0.0000
vt 0.4844 0.1376 0.0000
vt 0.4844 0.1750 0.0000
vt 0.5245 0.2390 0.0000
vt 0.4844 0.2068 0.0000
vt 0.2814 0.6544 0.0000
vt 0.2814 0.6861 0.0000
vt 0.1694 0.6169 0.0000
vt 0.1694 0.5693 0.0000
vt 0.1694 0.5290 0.0000
vt 0.1694 0.5020 0.0000
vt 0.1170 0.8148 0.0000
vt 0.1170 0.8624 0.0000
vt 0.1170 0.9100 0.0000
vt 0.1170 0.9504 0.0000
vt 0.1170 0.9773 0.0000
vt 0.3648 0.7511 0.0000
vt 0.3648 0.7987 0.0000
vt 0.3648 0.8463 0.0000
vt 0.5964 0.0227 0.0000
vt 0.5964 0.0496 0.0000
vt 0.5964 0.0900 0.0000
vt 0.5964 0.1376 0.0000
vt 0.5964 0.1852 0.0000
vt 0.1694 0.7318 0.0000
vt 0.1694 0.7049 0.0000
vt 0.1694 0.6645 0.0000
# 274 texture coords

g Object001
f 1/1/1 2/2/1 3/3/2 4/4/2 
f 4/4/2 3/3/2 5/5/3 6/6/3 
f 6/6/3 5/5/3 7/7/4 8/8/4 
f 8/9/4 7/10/4 9/11/5 10/12/5 
f 10/12/5 9/11/5 11/13/6 12/14/6 
f 12/15/6 11/16/6 13/17/7 14/18/7 
f 14/18/7 13/17/7 15/19/8 16/20/8 
f 16/20/8 15/19/8 17/21/9 18/22/9 
f 18/22/9 17/21/9 19/23/10 20/24/10 
f 20/24/10 19/23/10 21/25/11 22/26/11 
f 22/26/11 21/25/11 23/27/12 24/28/12 
f 24/29/12 23/30/12 25/31/13 26/32/13 
f 26/32/13 25/31/13 27/33/14 28/34/14 
f 28/35/14 27/36/14 29/37/15 30/38/15 
f 30/38/15 29/37/15 31/39/16 32/40/16 
f 32/40/16 31/39/16 2/2/1 1/1/1 
f 33/41/17 1/42/18 4/43/19 34/44/20 
f 34/44/20 4/43/19 6/45/21 35/46/22 
f 35/46/22 6/45/21 8/47/23 36/48/24 
f 36/48/24 8/47/23 10/49/25 37/50/26 
f 37/50/26 10/49/25 12/51/27 38/52/28 
f 38/52/28 12/51/27 14/53/29 39/54/30 
f 39/54/30 14/53/29 16/55/31 40/56/32 
f 40/56/32 16/55/31 18/57/33 41/58/34 
f 41/58/34 18/57/33 20/59/35 42/60/36 
f 42/60/36 20/59/35 22/61/37 43/62/38 
f 43/62/38 22/61/37 24/63/39 44/64/40 
f 44/64/40 24/63/39 26/65/41 45/66/42 
f 45/66/42 26/65/41 28/67/43 46/68/44 
f 46/68/44 28/67/43 30/69/45 47/70/46 
f 47/70/46 30/69/45 32/71/47 48/72/48 
f 48/72/48 32/71/47 1/42/18 33/41/17 
f 49/73/49 33/41/17 34/44/20 50/74/49 
f 50/74/49 34/44/20 35/46/22 51/75/49 
f 51/75/49 35/46/22 36/48/24 52/76/49 
f 52/76/49 36/48/24 37/50/26 53/77/49 
f 53/77/49 37/50/26 38/52/28 54/78/49 
f 54/78/49 38/52/28 39/54/30 55/79/49 
f 55/79/49 39/54/30 40/56/32 56/80/49 
f 56/80/49 40/56/32 41/58/34 57/81/49 
f 57/81/49 41/58/34 42/60/36 58/82/49 
f 58/82/49 42/60/36 43/62/38 59/83/49 
f 59/83/49 43/62/38 44/64/40 60/84/49 
f 60/84/49 44/64/40 45/66/42 61/85/49 
f 61/85/49 45/66/42 46/68/44 62/86/49 
f 62/86/49 46/68/44 47/70/46 63/87/49 
f 63/87/49 47/70/46 48/72/48 64/88/49 
f 64/88/49 48/72/48 33/41/17 49/73/49 
f 65/89/50 66/90/51 67/91/52 68/92/53 
f 69/93/54 66/90/51 65/89/50 70/94/55 
f 71/95/56 66/90/51 69/93/54 72/96/57 
f 73/97/58 66/90/51 71/95/56 74/98/59 
f 75/99/60 66/90/51 73/97/58 76/100/61 
f 77/101/62 66/90/51 75/99/60 78/102/63 
f 79/103/64 66/90/51 77/101/62 80/104/65 
f 81/105/66 49/106/66 50/107/2 82/108/2 
f 82/108/2 50/107/2 51/109/3 83/110/3 
f 83/110/3 51/109/3 52/111/4 84/112/4 
f 84/113/4 52/114/4 53/115/5 85/116/5 
f 85/116/5 53/115/5 54/117/6 86/118/6 
f 86/118/6 54/117/6 55/119/7 87/120/7 
f 87/120/7 55/119/7 56/121/8 88/122/8 
f 88/123/8 56/124/8 57/125/67 89/126/67 
f 89/126/67 57/125/67 58/127/10 90/128/10 
f 90/129/10 58/130/10 59/131/11 91/132/11 
f 91/132/11 59/131/11 60/133/12 92/134/12 
f 92/134/12 60/133/12 61/135/13 93/136/13 
f 93/136/13 61/135/13 62/137/14 94/138/14 
f 94/139/14 62/140/14 63/141/15 95/142/15 
f 95/142/15 63/141/15 64/143/16 96/144/16 
f 96/144/16 64/143/16 49/106/66 81/105/66 
f 97/145/68 81/146/69 82/147/70 98/148/71 
f 98/148/71 82/147/70 83/149/72 99/150/73 
f 99/150/73 83/149/72 84/151/74 100/152/75 
f 100/152/75 84/151/74 85/153/76 101/154/77 
f 101/154/77 85/153/76 86/155/78 102/156/79 
f 102/156/79 86/155/78 87/157/80 103/158/81 
f 103/158/81 87/157/80 88/159/82 104/160/83 
f 104/160/83 88/159/82 89/161/84 105/162/85 
f 105/162/85 89/161/84 90/163/86 106/164/87 
f 106/164/87 90/163/86 91/165/88 107/166/89 
f 107/166/89 91/165/88 92/167/90 108/168/91 
f 108/168/91 92/167/90 93/169/92 109/170/93 
f 109/170/93 93/169/92 94/171/94 110/172/95 
f 110/172/95 94/171/94 95/173/96 111/174/97 
f 111/174/97 95/173/96 96/175/98 112/176/99 
f 112/176/99 96/175/98 81/146/69 97/145/68 
f 113/177/100 114/178/101 115/179/102 116/180/103 
f 114/178/101 117/181/104 118/182/105 115/179/102 
f 117/181/104 119/183/106 120/184/107 118/182/105 
f 119/185/106 121/186/108 122/187/109 120/188/107 
f 121/186/108 123/189/110 124/190/111 122/187/109 
f 123/189/110 125/191/112 126/192/113 124/190/111 
f 125/191/112 127/193/114 128/194/115 126/192/113 
f 127/195/114 129/196/116 130/197/117 128/198/115 
f 129/196/116 131/199/118 132/200/119 130/197/117 
f 131/201/118 133/202/120 134/203/121 132/204/119 
f 133/202/120 135/205/122 136/206/123 134/203/121 
f 135/205/122 137/207/124 138/208/125 136/206/123 
f 137/207/124 139/209/126 140/210/127 138/208/125 
f 139/211/126 141/212/128 142/213/129 140/214/127 
f 141/212/128 143/215/130 144/216/131 142/213/129 
f 143/215/130 113/177/100 116/180/103 144/216/131 
f 145/217/132 146/218/133 67/91/52 66/90/51 
f 146/218/133 147/219/134 68/92/53 67/91/52 
f 147/219/134 148/220/135 65/89/50 68/92/53 
f 148/220/135 149/221/136 70/94/55 65/89/50 
f 149/221/136 150/222/137 69/93/54 70/94/55 
f 150/222/137 151/223/138 72/96/57 69/93/54 
f 151/223/138 152/224/139 71/95/56 72/96/57 
f 152/224/139 153/225/140 74/98/59 71/95/56 
f 153/225/140 154/226/141 73/97/58 74/98/59 
f 154/226/141 155/227/142 76/100/61 73/97/58 
f 155/227/142 156/228/143 75/99/60 76/100/61 
f 156/228/143 157/229/144 78/102/63 75/99/60 
f 157/229/144 158/230/145 77/101/62 78/102/63 
f 158/230/145 159/231/146 80/104/65 77/101/62 
f 159/231/146 160/232/147 79/103/64 80/104/65 
f 160/232/147 145/217/132 66/90/51 79/103/64 
f 116/180/148 115/179/149 146/233/133 145/234/132 
f 115/179/149 118/182/150 147/235/134 146/233/133 
f 118/236/150 120/188/151 148/237/135 147/238/134 
f 120/188/151 122/187/152 149/239/136 148/237/135 
f 122/187/152 124/190/153 150/240/137 149/239/136 
f 124/190/153 126/192/154 151/241/138 150/240/137 
f 126/242/154 128/243/155 152/224/139 151/223/138 
f 128/243/155 130/244/156 153/225/140 152/224/139 
f 130/244/156 132/245/157 154/226/141 153/225/140 
f 132/245/157 134/246/158 155/227/142 154/226/141 
f 134/203/158 136/206/159 156/247/143 155/248/142 
f 136/206/159 138/208/160 157/249/144 156/247/143 
f 138/208/160 140/210/161 158/250/145 157/249/144 
f 140/210/161 142/251/162 159/252/146 158/250/145 
f 142/213/162 144/216/163 160/253/147 159/254/146 
f 144/216/163 116/180/148 145/234/132 160/253/147 
f 97/255/68 98/256/71 114/178/101 113/177/100 
f 98/256/71 99/257/73 117/181/104 114/178/101 
f 99/257/73 100/258/75 119/183/106 117/181/104 
f 100/259/75 101/260/77 121/186/108 119/185/106 
f 101/260/77 102/261/79 123/189/110 121/186/108 
f 102/261/79 103/262/81 125/191/112 123/189/110 
f 103/262/81 104/263/83 127/193/114 125/191/112 
f 104/264/83 105/265/85 129/196/116 127/195/114 
f 105/265/85 106/266/87 131/199/118 129/196/116 
f 106/267/87 107/268/89 133/202/120 131/201/118 
f 107/268/89 108/269/91 135/205/122 133/202/120 
f 108/269/91 109/270/93 137/207/124 135/205/122 
f 109/270/93 110/271/95 139/209/126 137/207/124 
f 110/272/95 111/273/97 141/212/128 139/211/126 
f 111/273/97 112/274/99 143/215/130 141/212/128 
f 112/274/99 97/255/68 113/177/100 143/215/130 
# 151 polygons

