# 3ds Max Wavefront OBJ Exporter v0.97b - (c)2007 guruware
# File Created: 21.03.2016 21:51:23

#
# object Object001
#

v  -588.9893 454.1011 -1076.8069
v  -588.9893 613.2040 -1076.8069
v  -841.4023 613.2040 -1076.8069
v  -841.4023 454.1011 -1076.8069
v  573.7188 454.1011 -1076.8069
v  573.7188 613.2040 -1076.8069
v  321.3056 613.2040 -1076.8069
v  321.3056 454.1011 -1076.8069
# 8 vertices

vn 0.0000 0.0000 1.0000
# 1 vertex normals

vt 0.0100 0.9900 0.0000
vt 0.0100 0.5128 0.0000
vt 0.7671 0.5128 0.0000
vt 0.7671 0.9900 0.0000
vt 0.0100 0.4872 0.0000
vt 0.0100 0.0100 0.0000
vt 0.7671 0.0100 0.0000
vt 0.7671 0.4872 0.0000
# 8 texture coords

g Object001
f 1/1/1 2/2/1 3/3/1 4/4/1 
f 5/5/1 6/6/1 7/7/1 8/8/1 
# 2 polygons

